<?xml version="1.0" standalone="no"?>
<!DOCTYPE svg PUBLIC "-//W3C//DTD SVG 20010904//EN"
 "http://www.w3.org/TR/2001/REC-SVG-20010904/DTD/svg10.dtd">
<svg version="1.0" xmlns="http://www.w3.org/2000/svg"
 width="1772.000000pt" height="1772.000000pt" viewBox="0 0 1772.000000 1772.000000"
 preserveAspectRatio="xMidYMid meet">

<g transform="translate(0.000000,1772.000000) scale(0.100000,-0.100000)"
fill="#000000" stroke="none">
<path d="M8523 15303 c-18 -2 -33 -10 -33 -16 0 -7 7 -94 16 -195 9 -101 13
-186 10 -189 -4 -4 -91 77 -194 180 l-187 186 -77 -6 c-76 -6 -78 -7 -78 -32
1 -52 58 -672 62 -676 3 -3 39 -2 81 1 l77 7 0 36 c0 20 -7 108 -15 196 -8 88
-15 169 -15 180 0 14 60 -41 199 -179 l199 -198 65 4 c37 2 69 7 73 11 4 4 -6
161 -22 350 l-29 342 -50 1 c-27 1 -65 -1 -82 -3z"/>
<path d="M9249 15267 c-78 -33 -127 -73 -170 -140 -121 -187 -48 -428 159
-525 51 -24 68 -27 172 -27 107 0 119 2 174 29 76 37 135 96 172 172 25 52 29
70 29 149 0 77 -4 98 -27 147 -37 79 -98 142 -176 180 -60 30 -76 33 -172 36
-92 2 -112 0 -161 -21z m232 -139 c108 -37 159 -146 124 -265 -36 -122 -152
-180 -278 -137 -78 26 -137 110 -137 195 0 39 25 114 49 147 44 62 156 90 242
60z"/>
<path d="M10121 14838 c-51 -187 -91 -342 -88 -344 11 -11 151 -44 157 -37 4
4 31 96 60 203 29 107 53 196 55 198 1 1 26 -54 55 -123 29 -69 59 -130 66
-136 10 -8 39 8 124 71 62 45 114 80 116 77 3 -3 -17 -88 -45 -190 -28 -101
-51 -191 -51 -199 0 -10 25 -22 78 -36 42 -11 78 -19 79 -18 4 3 183 667 183
676 0 11 -126 44 -144 37 -8 -3 -71 -47 -141 -98 -69 -50 -130 -88 -134 -83
-4 5 -36 75 -71 157 -34 81 -64 147 -66 147 -2 0 -35 9 -73 19 l-68 19 -92
-340z"/>
<path d="M7246 15110 c-75 -13 -189 -74 -232 -123 -20 -23 -48 -67 -63 -97
-22 -47 -26 -68 -26 -150 0 -84 3 -102 28 -152 36 -73 119 -150 195 -179 80
-31 204 -31 284 0 130 50 213 139 244 261 65 259 -158 487 -430 440z m141
-161 c45 -17 91 -69 113 -126 23 -60 25 -91 10 -145 -32 -113 -184 -180 -295
-129 -112 50 -159 219 -91 322 48 71 178 110 263 78z"/>
<path d="M11272 14791 c-147 -342 -252 -605 -245 -610 13 -12 143 -64 148 -60
5 6 263 622 267 639 2 7 -29 26 -74 45 l-77 33 -19 -47z"/>
<path d="M6329 14796 c-130 -36 -258 -144 -299 -253 -32 -84 -25 -205 15 -286
34 -68 107 -140 173 -169 75 -34 190 -36 278 -6 86 30 171 85 223 145 l39 44
-25 57 c-44 101 -41 98 -72 55 -124 -171 -311 -214 -423 -96 -107 112 -63 277
94 349 54 24 76 29 150 29 49 0 88 1 88 2 0 2 -14 34 -31 73 l-32 70 -66 -1
c-36 0 -87 -6 -112 -13z"/>
<path d="M11819 14486 c-102 -27 -190 -103 -238 -205 -22 -48 -26 -69 -25
-146 0 -113 23 -165 109 -250 85 -85 220 -145 326 -145 35 0 39 3 73 65 20 36
36 68 36 70 0 3 -27 5 -59 5 -206 0 -358 153 -306 309 31 94 135 161 228 147
89 -14 195 -89 243 -173 l27 -44 18 30 c10 16 27 48 39 71 l21 41 -21 34 c-48
77 -173 160 -285 190 -70 18 -123 18 -186 1z"/>
<path d="M5375 14288 c-110 -71 -200 -135 -200 -141 0 -7 83 -142 184 -300
125 -195 188 -286 198 -283 22 9 393 248 399 258 5 8 -52 108 -62 108 -3 0
-66 -39 -141 -87 -75 -48 -138 -83 -140 -78 -2 6 -21 37 -43 69 -21 33 -37 63
-35 66 2 4 57 40 120 81 64 40 119 77 122 82 6 10 -56 107 -68 107 -5 0 -61
-34 -124 -75 -64 -41 -120 -75 -124 -75 -13 0 -85 114 -75 117 5 2 66 41 136
86 l127 83 -37 55 -37 56 -200 -129z"/>
<path d="M12615 14005 c-51 -18 -112 -85 -126 -139 -16 -60 2 -126 66 -239 59
-101 66 -134 37 -160 -36 -32 -85 -14 -146 53 -36 40 -86 131 -86 158 0 6 -3
12 -8 12 -11 0 -92 -107 -92 -122 0 -23 78 -134 121 -173 114 -103 268 -118
345 -33 51 56 72 132 54 199 -7 24 -36 87 -66 139 -61 106 -68 144 -29 162 18
8 32 8 54 -2 41 -17 114 -96 146 -160 15 -29 30 -49 34 -44 4 5 24 31 45 57
l38 48 -34 55 c-86 145 -244 229 -353 189z"/>
<path d="M4270 13395 l-165 -165 250 -245 c138 -134 255 -244 260 -244 6 -1
35 24 65 54 l54 55 -104 105 -105 105 105 105 105 105 -48 47 -47 48 -105
-105 -105 -105 -52 53 -53 52 103 103 102 103 -48 47 -47 47 -165 -165z"/>
<path d="M13480 12864 c-195 -64 -356 -116 -357 -118 -1 -1 14 -22 34 -46 19
-25 44 -56 54 -69 l18 -23 63 21 c34 12 67 21 74 21 7 0 53 -51 103 -114 l91
-114 -36 -63 c-32 -55 -35 -65 -24 -83 20 -32 92 -116 100 -116 7 0 360 653
360 667 0 9 -108 147 -118 150 -4 1 -167 -50 -362 -113z m217 -200 c-68 -120
-71 -125 -86 -105 -9 11 -38 47 -64 80 -33 42 -44 63 -35 66 33 13 244 84 250
84 3 1 -26 -56 -65 -125z"/>
<path d="M3833 12795 c-112 -31 -198 -106 -256 -225 -29 -59 -32 -73 -32 -160
0 -88 3 -101 33 -162 36 -74 95 -132 170 -169 40 -20 63 -24 147 -24 90 0 106
3 158 28 79 39 146 108 189 193 76 152 55 303 -58 424 -83 89 -231 129 -351
95z m182 -185 c28 -15 63 -46 80 -69 27 -38 30 -51 30 -115 0 -62 -4 -78 -28
-114 -62 -95 -169 -126 -264 -79 -52 27 -108 82 -124 124 -13 36 -11 109 5
147 24 57 83 115 135 130 57 18 102 12 166 -24z"/>
<path d="M14035 12119 c-165 -93 -299 -173 -298 -177 1 -5 19 -38 40 -74 l38
-66 185 103 c102 57 186 102 188 101 1 -2 -40 -119 -93 -260 -52 -141 -95
-261 -95 -267 0 -6 14 -36 31 -66 23 -41 35 -53 48 -48 27 10 575 317 589 330
10 9 5 25 -25 78 -20 37 -41 67 -46 67 -4 0 -85 -43 -179 -96 -93 -52 -171
-94 -173 -92 -1 2 37 113 86 247 49 133 89 250 89 258 0 22 -63 133 -75 132
-5 0 -145 -77 -310 -170z"/>
<path d="M2949 11477 l-36 -92 71 -105 c39 -58 72 -108 74 -111 1 -3 -26 -12
-60 -19 -35 -6 -93 -19 -130 -27 l-67 -15 -36 -90 c-20 -50 -35 -92 -33 -93 2
-1 102 21 223 49 l220 52 144 -58 c80 -32 150 -58 156 -58 6 0 25 34 42 75
l31 76 -32 13 c-17 7 -86 34 -154 61 l-122 49 -117 180 c-63 100 -121 186
-127 193 -8 9 -20 -10 -47 -80z"/>
<path d="M7360 11265 l0 -145 705 0 705 0 0 145 0 145 -705 0 -705 0 0 -145z"/>
<path d="M14521 11190 c-178 -66 -325 -121 -327 -123 -6 -6 99 -284 130 -345
60 -119 167 -186 296 -186 228 -1 394 184 360 398 -10 62 -118 376 -129 375
-3 0 -152 -54 -330 -119z m289 -152 c26 -69 36 -143 26 -183 -18 -72 -135
-147 -231 -149 -83 -1 -136 37 -179 127 -62 130 -76 112 146 194 106 39 198
71 204 72 6 1 22 -27 34 -61z"/>
<path d="M7888 10864 c-225 -34 -426 -135 -592 -294 -190 -183 -303 -419 -325
-679 -10 -119 2 -280 29 -386 34 -134 122 -296 199 -369 17 -17 31 -35 31 -40
0 -17 -662 -1656 -669 -1656 -4 0 -320 771 -703 1713 l-696 1712 -152 3 c-143
2 -151 1 -148 -16 2 -10 374 -937 828 -2061 l825 -2042 44 3 44 3 435 1081
435 1081 116 -58 c64 -31 206 -94 316 -139 392 -159 537 -240 670 -374 240
-241 282 -635 102 -956 -56 -100 -187 -231 -287 -287 -261 -146 -577 -144
-885 7 -110 54 -273 157 -395 250 -43 33 -81 60 -84 60 -3 0 -6 -83 -6 -184
l0 -184 83 -54 c196 -127 453 -235 652 -274 119 -24 369 -24 472 -1 227 52
408 150 563 307 235 238 348 573 311 925 -44 411 -229 664 -640 870 -52 26
-205 92 -340 147 -236 96 -456 200 -502 237 l-22 17 268 665 c147 365 270 670
272 677 11 27 179 5 319 -44 101 -34 229 -96 373 -179 63 -36 116 -65 118 -65
2 0 3 78 3 174 l0 174 -122 60 c-323 159 -654 221 -940 176z m-289 -865 c-116
-288 -214 -530 -218 -537 -5 -9 -17 7 -33 45 -97 216 -79 487 44 698 24 41 75
103 124 152 68 67 102 91 186 133 56 28 104 47 106 42 1 -5 -92 -245 -209
-533z"/>
<path d="M9270 8825 l0 -2035 1480 0 1480 0 0 480 0 480 -750 0 -750 0 0 330
0 330 695 0 695 0 0 465 0 465 -695 0 -695 0 0 295 0 295 735 0 735 0 0 465 0
465 -1465 0 -1465 0 0 -2035z"/>
<path d="M2631 10603 c-39 -144 -141 -595 -137 -602 3 -5 23 -12 43 -16 21 -3
48 -9 59 -11 20 -5 24 3 49 110 16 71 31 116 39 116 7 0 133 -29 280 -64 179
-42 269 -60 271 -52 12 33 35 150 31 154 -3 2 -125 33 -272 68 -146 34 -269
65 -272 69 -5 5 31 186 44 220 3 8 -12 17 -43 24 -26 7 -56 14 -65 17 -13 4
-19 -4 -27 -33z"/>
<path d="M14931 9721 c-198 -21 -346 -40 -348 -46 -2 -6 6 -93 16 -194 22
-206 38 -253 103 -305 48 -37 127 -47 192 -22 51 20 79 47 101 99 l16 38 30
-25 c65 -55 144 -54 211 2 44 38 58 79 57 174 0 84 -22 305 -30 311 -2 2 -159
-13 -348 -32z m249 -221 c0 -78 -19 -110 -64 -110 -56 0 -79 29 -90 117 l-7
52 43 4 c24 2 60 4 81 5 l37 2 0 -70z m-286 31 c3 -4 6 -42 8 -84 2 -88 -14
-121 -63 -132 -64 -14 -106 51 -108 167 l-1 47 38 4 c73 7 121 7 126 -2z"/>
<path d="M2435 9593 c-4 -32 -8 -69 -9 -83 l-1 -24 315 -38 c173 -20 331 -37
351 -37 l37 -1 7 76 c4 42 3 79 -2 84 -7 6 -632 81 -675 80 -13 0 -18 -13 -23
-57z"/>
<path d="M2804 9112 c-57 -27 -98 -81 -140 -186 -41 -105 -67 -138 -104 -134
-19 2 -28 12 -40 45 -17 51 -6 122 34 209 l25 54 -74 0 -74 0 -22 -57 c-33
-84 -34 -250 -2 -309 46 -87 116 -123 211 -110 89 12 144 72 201 220 36 93 54
116 92 116 71 0 80 -130 18 -250 -19 -36 -35 -69 -37 -73 -2 -4 31 -7 74 -5
l79 3 23 59 c65 164 39 338 -60 404 -54 35 -145 41 -204 14z"/>
<path d="M14809 8827 c-129 -49 -195 -173 -187 -351 7 -143 63 -240 164 -282
40 -17 163 -29 381 -39 l151 -7 4 78 c2 44 1 82 -2 85 -3 4 -101 12 -219 18
-190 10 -220 14 -255 34 -46 25 -86 91 -86 142 0 41 38 114 73 139 25 19 43
21 150 21 67 0 176 -2 242 -5 l120 -5 3 81 3 81 -46 6 c-25 4 -139 9 -253 12
-162 4 -215 3 -243 -8z"/>
<path d="M2980 8335 c-58 -35 -124 -82 -147 -104 -40 -39 -42 -40 -55 -22 -46
66 -163 83 -243 37 -64 -38 -95 -95 -95 -177 1 -68 33 -325 42 -335 6 -5 688
82 695 90 4 4 -17 166 -21 166 -7 0 -226 -31 -253 -35 l-33 -6 0 49 c0 60 24
86 160 167 52 32 96 58 96 59 6 6 -23 170 -31 172 -5 2 -57 -25 -115 -61z
m-281 -252 c22 -18 40 -74 41 -124 0 -25 -3 -26 -76 -35 -41 -6 -77 -7 -79 -4
-2 3 -7 33 -10 67 -7 57 -6 63 18 87 31 31 75 34 106 9z"/>
<path d="M14597 7858 c-150 -197 -119 -448 61 -487 113 -24 176 12 274 157 63
93 82 112 113 112 73 0 53 -149 -35 -260 -17 -21 -30 -40 -30 -43 0 -3 32 -11
70 -18 66 -11 71 -11 85 7 32 41 74 142 86 206 18 99 1 166 -56 224 -48 47
-86 59 -165 52 -74 -7 -120 -45 -197 -161 -66 -97 -90 -119 -125 -109 -29 7
-41 30 -40 76 0 57 28 118 85 188 l46 57 -52 11 c-28 6 -61 13 -73 16 -16 4
-28 -3 -47 -28z"/>
<path d="M3159 7515 l-46 -15 44 -156 c24 -86 43 -157 41 -159 -2 -1 -38 -11
-81 -23 -57 -15 -79 -18 -82 -9 -2 7 -21 72 -41 145 -20 72 -41 132 -46 132
-20 0 -118 -32 -118 -38 0 -4 18 -70 39 -147 22 -77 39 -140 38 -141 -12 -7
-130 -34 -133 -31 -3 3 -23 70 -46 151 -22 80 -45 146 -50 146 -6 0 -35 -7
-65 -16 -42 -12 -54 -20 -50 -32 92 -338 121 -439 127 -445 6 -7 663 167 679
179 2 2 -26 108 -61 236 -72 259 -65 249 -149 223z"/>
<path d="M14356 7063 c-13 -43 -23 -79 -23 -79 4 -4 661 -214 668 -214 5 0 19
35 33 78 17 55 21 79 13 83 -19 10 -643 209 -655 209 -6 0 -22 -35 -36 -77z"/>
<path d="M14196 6612 c-20 -41 -36 -75 -34 -77 2 -1 87 -42 191 -90 103 -48
187 -91 187 -94 0 -3 -107 -35 -238 -70 -130 -35 -251 -68 -267 -72 -25 -7
-37 -21 -62 -73 l-32 -63 322 -152 322 -151 32 68 c18 37 32 72 33 78 0 5 -81
48 -180 94 -99 46 -177 86 -174 89 3 3 119 38 257 76 l252 71 32 59 c18 33 32
66 30 73 -2 11 -169 94 -563 276 l-71 33 -37 -75z"/>
<path d="M2800 6541 c0 -6 16 -45 35 -87 l35 -77 216 6 c201 6 215 5 202 -10
-7 -10 -73 -82 -145 -162 -73 -80 -133 -148 -133 -152 0 -3 16 -42 36 -85 l35
-78 33 35 c19 19 137 150 264 292 l231 258 -14 32 -13 32 -391 3 c-244 1 -391
-1 -391 -7z"/>
<path d="M3540 5793 c-162 -96 -294 -178 -293 -182 2 -7 71 -129 78 -139 2 -3
529 303 592 344 l22 14 -41 70 c-22 38 -46 70 -52 69 -6 0 -144 -79 -306 -176z"/>
<path d="M13646 5601 c-75 -110 -136 -203 -136 -208 0 -9 100 -76 106 -71 2 2
43 63 92 135 l88 132 65 -45 c35 -25 65 -48 67 -52 1 -5 -34 -61 -78 -126 -44
-64 -80 -120 -80 -124 0 -7 95 -72 105 -72 2 0 41 54 85 120 44 66 85 120 91
120 8 0 82 -46 108 -67 2 -1 -35 -62 -83 -134 -48 -72 -85 -133 -83 -135 22
-23 103 -72 108 -66 7 8 253 372 262 389 5 7 -94 79 -275 200 -156 104 -288
193 -295 196 -8 5 -60 -63 -147 -192z"/>
<path d="M3817 5344 l-277 -216 27 -37 c47 -63 71 -91 77 -91 3 0 76 55 161
121 86 67 158 120 160 118 2 -2 -21 -122 -49 -267 l-53 -262 45 -58 c24 -31
49 -56 54 -54 9 2 547 418 551 425 1 2 -21 34 -48 70 l-51 65 -167 -130 c-93
-72 -170 -129 -172 -127 -2 3 22 127 54 277 l58 273 -41 54 c-23 30 -43 54
-46 54 -3 0 -130 -97 -283 -215z"/>
<path d="M13309 5108 c-113 -57 -202 -164 -215 -262 -11 -74 2 -113 55 -166
86 -86 170 -86 341 0 92 46 136 51 149 18 5 -13 4 -35 -1 -50 -14 -40 -99
-112 -163 -139 -31 -13 -54 -27 -52 -33 2 -5 25 -28 50 -50 l48 -40 55 27 c74
37 158 117 190 184 31 63 36 141 11 189 -23 45 -81 91 -129 104 -61 17 -115 5
-228 -51 -56 -27 -112 -49 -124 -49 -28 0 -56 29 -56 57 0 55 96 138 196 170
30 9 54 19 54 23 0 6 -105 100 -113 100 -2 0 -33 -14 -68 -32z"/>
<path d="M4635 4661 c-50 -22 -110 -79 -266 -251 l-122 -134 64 -59 64 -59 39
44 c213 234 278 298 319 309 97 26 207 -56 207 -156 0 -60 -26 -99 -176 -263
l-143 -157 62 -57 c34 -32 64 -57 67 -57 3 0 36 35 74 77 277 306 291 328 284
440 -2 44 -12 84 -28 117 -32 67 -123 155 -200 194 -53 26 -74 31 -134 31 -47
0 -85 -7 -111 -19z"/>
<path d="M12794 4562 c-83 -29 -163 -83 -205 -137 -48 -63 -59 -94 -59 -158 0
-103 80 -186 185 -195 46 -4 77 2 172 33 130 43 165 42 171 -7 6 -54 -113
-145 -215 -164 -18 -3 -33 -8 -33 -11 0 -18 85 -103 102 -103 39 0 163 68 212
117 61 59 85 112 86 181 0 72 -29 125 -87 163 -67 42 -144 40 -277 -6 -116
-41 -120 -41 -146 -15 -29 29 -25 55 15 99 42 46 104 77 187 94 l59 12 -48 57
c-26 31 -52 57 -58 57 -5 0 -33 -8 -61 -17z"/>
<path d="M10988 3479 c-126 -50 -228 -95 -228 -99 0 -11 247 -641 255 -648 4
-4 468 173 484 184 3 3 -35 108 -44 121 -1 2 -70 -24 -154 -57 -84 -33 -156
-60 -160 -60 -5 0 -22 34 -39 75 l-31 76 27 10 c110 42 240 93 254 101 16 8
16 12 -3 61 -11 28 -24 56 -28 60 -5 5 -71 -17 -147 -47 -76 -31 -141 -56
-145 -56 -4 0 -9 6 -12 13 -3 6 -14 35 -25 63 l-21 52 147 57 c81 32 151 61
155 65 10 9 -33 120 -47 119 -6 0 -113 -41 -238 -90z"/>
<path d="M6430 3233 c-67 -175 -123 -324 -124 -331 -1 -13 121 -70 151 -71 6
-1 30 47 53 107 23 59 46 117 50 129 l9 22 98 -36 c81 -29 107 -34 151 -30 91
9 159 68 183 160 23 83 -17 178 -94 225 -25 16 -338 142 -351 142 -1 0 -58
-143 -126 -317z m307 106 c88 -38 108 -71 78 -129 -20 -39 -55 -47 -119 -26
-81 26 -80 23 -50 104 14 40 30 72 34 72 5 0 30 -9 57 -21z"/>
<path d="M10418 3282 c-38 -8 -68 -19 -68 -25 0 -5 21 -98 46 -206 50 -214 53
-267 16 -319 -47 -65 -157 -91 -230 -53 -58 29 -84 89 -132 301 -23 102 -46
189 -50 193 -9 10 -170 -24 -170 -36 0 -26 103 -435 118 -470 41 -91 131 -147
246 -155 135 -8 290 49 365 134 76 87 79 162 13 444 -55 233 -43 218 -154 192z"/>
<path d="M7285 3280 c-4 -7 -151 -628 -157 -665 -3 -16 8 -22 67 -36 109 -27
99 -36 135 117 l32 136 35 -5 c67 -11 85 -42 117 -203 13 -64 29 -120 36 -124
16 -10 169 -44 174 -39 9 9 -56 286 -75 317 -25 43 -24 49 8 57 68 17 123 94
123 171 0 63 -43 139 -98 171 -47 28 -389 117 -397 103z m225 -180 c73 -19 98
-54 79 -110 -18 -50 -57 -61 -146 -39 l-45 12 6 41 c11 80 26 117 44 112 9 -3
37 -10 62 -16z"/>
<path d="M8101 2761 l-170 -340 42 -5 c23 -3 65 -7 93 -10 l51 -5 34 70 c33
70 34 70 69 65 19 -3 73 -8 120 -11 166 -11 157 -7 180 -85 l21 -69 42 -5 c99
-12 147 -15 147 -8 0 17 -244 708 -254 718 -6 7 -55 15 -108 18 l-97 7 -170
-340z m308 20 c23 -71 41 -132 41 -135 0 -6 -169 5 -191 13 -13 5 -6 26 42
129 32 67 60 122 63 122 3 0 23 -58 45 -129z"/>
<path d="M9207 3084 c-129 -31 -233 -109 -280 -212 -18 -38 -22 -66 -22 -142
0 -84 3 -102 28 -151 50 -102 154 -176 283 -200 117 -22 283 10 378 72 l48 32
-6 91 c-4 50 -9 117 -12 149 l-6 59 -77 -7 c-212 -16 -201 -14 -201 -43 0 -15
3 -44 7 -65 l6 -39 48 4 47 3 4 -38 c4 -44 -2 -51 -57 -66 -70 -19 -136 -14
-196 17 -172 87 -148 320 40 387 73 25 241 15 334 -20 15 -6 17 0 17 57 0 36
-6 72 -12 81 -30 41 -254 60 -371 31z"/>
</g>
</svg>
